<mxfile host="app.diagrams.net" agent="Mozilla/5.0 (Windows NT 10.0; Win64; x64) AppleWebKit/537.36 (KHTML, like Gecko) Chrome/138.0.0.0 Safari/537.36" version="28.0.7">
  <diagram name="Page-1" id="KqmntbThpOuOFVzjJuNc">
    <mxGraphModel dx="1188" dy="654" grid="1" gridSize="10" guides="1" tooltips="1" connect="1" arrows="1" fold="1" page="1" pageScale="1" pageWidth="850" pageHeight="1100" math="0" shadow="0">
      <root>
        <mxCell id="0" />
        <mxCell id="1" parent="0" />
        <mxCell id="mzn5P4DBW5ug80A-4Pqy-4" value="" style="edgeStyle=orthogonalEdgeStyle;rounded=0;orthogonalLoop=1;jettySize=auto;html=1;" edge="1" parent="1" source="mzn5P4DBW5ug80A-4Pqy-1" target="mzn5P4DBW5ug80A-4Pqy-3">
          <mxGeometry relative="1" as="geometry" />
        </mxCell>
        <mxCell id="mzn5P4DBW5ug80A-4Pqy-1" value="START" style="ellipse;whiteSpace=wrap;html=1;" vertex="1" parent="1">
          <mxGeometry x="299" y="40" width="103" height="40" as="geometry" />
        </mxCell>
        <mxCell id="mzn5P4DBW5ug80A-4Pqy-6" value="" style="edgeStyle=orthogonalEdgeStyle;rounded=0;orthogonalLoop=1;jettySize=auto;html=1;" edge="1" parent="1" source="mzn5P4DBW5ug80A-4Pqy-3" target="mzn5P4DBW5ug80A-4Pqy-5">
          <mxGeometry relative="1" as="geometry" />
        </mxCell>
        <mxCell id="mzn5P4DBW5ug80A-4Pqy-3" value="CREATE REQUEST" style="rounded=0;whiteSpace=wrap;html=1;" vertex="1" parent="1">
          <mxGeometry x="290" y="110" width="120" height="40" as="geometry" />
        </mxCell>
        <mxCell id="mzn5P4DBW5ug80A-4Pqy-19" value="" style="edgeStyle=orthogonalEdgeStyle;rounded=0;orthogonalLoop=1;jettySize=auto;html=1;" edge="1" parent="1" source="mzn5P4DBW5ug80A-4Pqy-5" target="mzn5P4DBW5ug80A-4Pqy-15">
          <mxGeometry relative="1" as="geometry" />
        </mxCell>
        <mxCell id="mzn5P4DBW5ug80A-4Pqy-20" value="YES" style="edgeLabel;html=1;align=center;verticalAlign=middle;resizable=0;points=[];" vertex="1" connectable="0" parent="mzn5P4DBW5ug80A-4Pqy-19">
          <mxGeometry x="-0.1534" relative="1" as="geometry">
            <mxPoint as="offset" />
          </mxGeometry>
        </mxCell>
        <mxCell id="mzn5P4DBW5ug80A-4Pqy-5" value="1ST APPROVER&lt;div&gt;APPROVED??&lt;/div&gt;" style="rhombus;whiteSpace=wrap;html=1;" vertex="1" parent="1">
          <mxGeometry x="288" y="180" width="125" height="90" as="geometry" />
        </mxCell>
        <mxCell id="mzn5P4DBW5ug80A-4Pqy-9" style="edgeStyle=orthogonalEdgeStyle;rounded=0;orthogonalLoop=1;jettySize=auto;html=1;entryX=0.003;entryY=0.437;entryDx=0;entryDy=0;entryPerimeter=0;exitX=0;exitY=0.5;exitDx=0;exitDy=0;" edge="1" parent="1" source="mzn5P4DBW5ug80A-4Pqy-5">
          <mxGeometry relative="1" as="geometry">
            <mxPoint x="287.64" y="217.52" as="sourcePoint" />
            <mxPoint x="290" y="120.00000000000001" as="targetPoint" />
            <Array as="points">
              <mxPoint x="268" y="225" />
              <mxPoint x="268" y="120" />
            </Array>
          </mxGeometry>
        </mxCell>
        <mxCell id="mzn5P4DBW5ug80A-4Pqy-11" value="NO" style="edgeLabel;html=1;align=center;verticalAlign=middle;resizable=0;points=[];" vertex="1" connectable="0" parent="mzn5P4DBW5ug80A-4Pqy-9">
          <mxGeometry x="-0.0031" relative="1" as="geometry">
            <mxPoint y="38" as="offset" />
          </mxGeometry>
        </mxCell>
        <mxCell id="mzn5P4DBW5ug80A-4Pqy-24" style="edgeStyle=orthogonalEdgeStyle;rounded=0;orthogonalLoop=1;jettySize=auto;html=1;entryX=0.5;entryY=0;entryDx=0;entryDy=0;" edge="1" parent="1" source="mzn5P4DBW5ug80A-4Pqy-12" target="mzn5P4DBW5ug80A-4Pqy-23">
          <mxGeometry relative="1" as="geometry" />
        </mxCell>
        <mxCell id="mzn5P4DBW5ug80A-4Pqy-12" value="ASSIGNED TECHNICIAN" style="rounded=0;whiteSpace=wrap;html=1;" vertex="1" parent="1">
          <mxGeometry x="290.5" y="440" width="120" height="40" as="geometry" />
        </mxCell>
        <mxCell id="mzn5P4DBW5ug80A-4Pqy-17" style="edgeStyle=orthogonalEdgeStyle;rounded=0;orthogonalLoop=1;jettySize=auto;html=1;entryX=0;entryY=0.5;entryDx=0;entryDy=0;exitX=0;exitY=0.5;exitDx=0;exitDy=0;" edge="1" parent="1" source="mzn5P4DBW5ug80A-4Pqy-15">
          <mxGeometry relative="1" as="geometry">
            <mxPoint x="290" y="140" as="targetPoint" />
            <mxPoint x="278" y="360" as="sourcePoint" />
            <Array as="points">
              <mxPoint x="258" y="355" />
              <mxPoint x="258" y="140" />
            </Array>
          </mxGeometry>
        </mxCell>
        <mxCell id="mzn5P4DBW5ug80A-4Pqy-18" value="FAILED" style="edgeLabel;html=1;align=center;verticalAlign=middle;resizable=0;points=[];" vertex="1" connectable="0" parent="mzn5P4DBW5ug80A-4Pqy-17">
          <mxGeometry x="0.2061" y="1" relative="1" as="geometry">
            <mxPoint y="121" as="offset" />
          </mxGeometry>
        </mxCell>
        <mxCell id="mzn5P4DBW5ug80A-4Pqy-21" value="" style="edgeStyle=orthogonalEdgeStyle;rounded=0;orthogonalLoop=1;jettySize=auto;html=1;" edge="1" parent="1" source="mzn5P4DBW5ug80A-4Pqy-15" target="mzn5P4DBW5ug80A-4Pqy-12">
          <mxGeometry relative="1" as="geometry">
            <Array as="points">
              <mxPoint x="358" y="440" />
              <mxPoint x="358" y="440" />
            </Array>
          </mxGeometry>
        </mxCell>
        <mxCell id="mzn5P4DBW5ug80A-4Pqy-22" value="PASSED" style="edgeLabel;html=1;align=center;verticalAlign=middle;resizable=0;points=[];" vertex="1" connectable="0" parent="mzn5P4DBW5ug80A-4Pqy-21">
          <mxGeometry x="-0.2" relative="1" as="geometry">
            <mxPoint as="offset" />
          </mxGeometry>
        </mxCell>
        <mxCell id="mzn5P4DBW5ug80A-4Pqy-15" value="2ND APPROVER&lt;div&gt;REVIEW&lt;/div&gt;" style="rhombus;whiteSpace=wrap;html=1;" vertex="1" parent="1">
          <mxGeometry x="288" y="310" width="125" height="90" as="geometry" />
        </mxCell>
        <mxCell id="mzn5P4DBW5ug80A-4Pqy-25" style="edgeStyle=orthogonalEdgeStyle;rounded=0;orthogonalLoop=1;jettySize=auto;html=1;entryX=0;entryY=0.5;entryDx=0;entryDy=0;exitX=0;exitY=0.5;exitDx=0;exitDy=0;" edge="1" parent="1" source="mzn5P4DBW5ug80A-4Pqy-23">
          <mxGeometry relative="1" as="geometry">
            <mxPoint x="288" y="560" as="sourcePoint" />
            <mxPoint x="290.5" y="470" as="targetPoint" />
            <Array as="points">
              <mxPoint x="268" y="555" />
              <mxPoint x="268" y="470" />
            </Array>
          </mxGeometry>
        </mxCell>
        <mxCell id="mzn5P4DBW5ug80A-4Pqy-26" value="NO" style="edgeLabel;html=1;align=center;verticalAlign=middle;resizable=0;points=[];" vertex="1" connectable="0" parent="mzn5P4DBW5ug80A-4Pqy-25">
          <mxGeometry x="-0.4972" y="1" relative="1" as="geometry">
            <mxPoint as="offset" />
          </mxGeometry>
        </mxCell>
        <mxCell id="mzn5P4DBW5ug80A-4Pqy-28" style="edgeStyle=orthogonalEdgeStyle;rounded=0;orthogonalLoop=1;jettySize=auto;html=1;entryX=0;entryY=0.5;entryDx=0;entryDy=0;" edge="1" parent="1" source="mzn5P4DBW5ug80A-4Pqy-23" target="mzn5P4DBW5ug80A-4Pqy-27">
          <mxGeometry relative="1" as="geometry" />
        </mxCell>
        <mxCell id="mzn5P4DBW5ug80A-4Pqy-29" value="YES" style="edgeLabel;html=1;align=center;verticalAlign=middle;resizable=0;points=[];" vertex="1" connectable="0" parent="mzn5P4DBW5ug80A-4Pqy-28">
          <mxGeometry x="-0.1142" relative="1" as="geometry">
            <mxPoint as="offset" />
          </mxGeometry>
        </mxCell>
        <mxCell id="mzn5P4DBW5ug80A-4Pqy-23" value="2ND APPROVER&lt;div&gt;APPROVED??&lt;/div&gt;" style="rhombus;whiteSpace=wrap;html=1;" vertex="1" parent="1">
          <mxGeometry x="288" y="510" width="125" height="90" as="geometry" />
        </mxCell>
        <mxCell id="mzn5P4DBW5ug80A-4Pqy-32" style="edgeStyle=orthogonalEdgeStyle;rounded=0;orthogonalLoop=1;jettySize=auto;html=1;entryX=0;entryY=0.5;entryDx=0;entryDy=0;" edge="1" parent="1">
          <mxGeometry relative="1" as="geometry">
            <mxPoint x="530.5" y="590" as="sourcePoint" />
            <mxPoint x="290.5" y="450" as="targetPoint" />
            <Array as="points">
              <mxPoint x="530" y="610" />
              <mxPoint x="248" y="610" />
              <mxPoint x="248" y="450" />
            </Array>
          </mxGeometry>
        </mxCell>
        <mxCell id="mzn5P4DBW5ug80A-4Pqy-34" value="NO" style="edgeLabel;html=1;align=center;verticalAlign=middle;resizable=0;points=[];" vertex="1" connectable="0" parent="mzn5P4DBW5ug80A-4Pqy-32">
          <mxGeometry x="-0.7745" y="2" relative="1" as="geometry">
            <mxPoint as="offset" />
          </mxGeometry>
        </mxCell>
        <mxCell id="mzn5P4DBW5ug80A-4Pqy-36" style="edgeStyle=orthogonalEdgeStyle;rounded=0;orthogonalLoop=1;jettySize=auto;html=1;entryX=0.5;entryY=1;entryDx=0;entryDy=0;" edge="1" parent="1" source="mzn5P4DBW5ug80A-4Pqy-27" target="mzn5P4DBW5ug80A-4Pqy-35">
          <mxGeometry relative="1" as="geometry" />
        </mxCell>
        <mxCell id="mzn5P4DBW5ug80A-4Pqy-37" value="YES" style="edgeLabel;html=1;align=center;verticalAlign=middle;resizable=0;points=[];" vertex="1" connectable="0" parent="mzn5P4DBW5ug80A-4Pqy-36">
          <mxGeometry x="0.0609" relative="1" as="geometry">
            <mxPoint y="5" as="offset" />
          </mxGeometry>
        </mxCell>
        <mxCell id="mzn5P4DBW5ug80A-4Pqy-27" value="3RD APPROVER&lt;div&gt;APPROVED??&lt;/div&gt;" style="rhombus;whiteSpace=wrap;html=1;" vertex="1" parent="1">
          <mxGeometry x="477.97" y="510" width="125" height="90" as="geometry" />
        </mxCell>
        <mxCell id="mzn5P4DBW5ug80A-4Pqy-38" style="edgeStyle=orthogonalEdgeStyle;rounded=0;orthogonalLoop=1;jettySize=auto;html=1;entryX=1;entryY=0.5;entryDx=0;entryDy=0;exitX=0;exitY=0.5;exitDx=0;exitDy=0;" edge="1" parent="1" source="mzn5P4DBW5ug80A-4Pqy-35">
          <mxGeometry relative="1" as="geometry">
            <mxPoint x="468.0000000000001" y="435" as="sourcePoint" />
            <mxPoint x="410.5" y="470" as="targetPoint" />
            <Array as="points">
              <mxPoint x="458" y="425" />
              <mxPoint x="458" y="470" />
            </Array>
          </mxGeometry>
        </mxCell>
        <mxCell id="mzn5P4DBW5ug80A-4Pqy-39" value="FAILED" style="edgeLabel;html=1;align=center;verticalAlign=middle;resizable=0;points=[];" vertex="1" connectable="0" parent="mzn5P4DBW5ug80A-4Pqy-38">
          <mxGeometry x="-0.6886" relative="1" as="geometry">
            <mxPoint y="19" as="offset" />
          </mxGeometry>
        </mxCell>
        <mxCell id="mzn5P4DBW5ug80A-4Pqy-41" style="edgeStyle=orthogonalEdgeStyle;rounded=0;orthogonalLoop=1;jettySize=auto;html=1;entryX=0.5;entryY=1;entryDx=0;entryDy=0;" edge="1" parent="1" source="mzn5P4DBW5ug80A-4Pqy-35" target="mzn5P4DBW5ug80A-4Pqy-40">
          <mxGeometry relative="1" as="geometry" />
        </mxCell>
        <mxCell id="mzn5P4DBW5ug80A-4Pqy-42" value="PASSED" style="edgeLabel;html=1;align=center;verticalAlign=middle;resizable=0;points=[];" vertex="1" connectable="0" parent="mzn5P4DBW5ug80A-4Pqy-41">
          <mxGeometry x="-0.1067" y="-2" relative="1" as="geometry">
            <mxPoint as="offset" />
          </mxGeometry>
        </mxCell>
        <mxCell id="mzn5P4DBW5ug80A-4Pqy-35" value="REQUESTOR&lt;div&gt;REVIEW&lt;/div&gt;" style="rhombus;whiteSpace=wrap;html=1;" vertex="1" parent="1">
          <mxGeometry x="477.97" y="380" width="125" height="90" as="geometry" />
        </mxCell>
        <mxCell id="mzn5P4DBW5ug80A-4Pqy-46" style="edgeStyle=orthogonalEdgeStyle;rounded=0;orthogonalLoop=1;jettySize=auto;html=1;entryX=0.5;entryY=1;entryDx=0;entryDy=0;" edge="1" parent="1" source="mzn5P4DBW5ug80A-4Pqy-40" target="mzn5P4DBW5ug80A-4Pqy-45">
          <mxGeometry relative="1" as="geometry" />
        </mxCell>
        <mxCell id="mzn5P4DBW5ug80A-4Pqy-47" value="PASSED" style="edgeLabel;html=1;align=center;verticalAlign=middle;resizable=0;points=[];" vertex="1" connectable="0" parent="mzn5P4DBW5ug80A-4Pqy-46">
          <mxGeometry x="-0.1206" relative="1" as="geometry">
            <mxPoint as="offset" />
          </mxGeometry>
        </mxCell>
        <mxCell id="mzn5P4DBW5ug80A-4Pqy-40" value="&lt;div&gt;1ST APPROVER&lt;/div&gt;&lt;div&gt;REVIEW&lt;/div&gt;" style="rhombus;whiteSpace=wrap;html=1;" vertex="1" parent="1">
          <mxGeometry x="477.97" y="250" width="125" height="90" as="geometry" />
        </mxCell>
        <mxCell id="mzn5P4DBW5ug80A-4Pqy-43" style="edgeStyle=orthogonalEdgeStyle;rounded=0;orthogonalLoop=1;jettySize=auto;html=1;entryX=0.996;entryY=0.35;entryDx=0;entryDy=0;entryPerimeter=0;" edge="1" parent="1" source="mzn5P4DBW5ug80A-4Pqy-40" target="mzn5P4DBW5ug80A-4Pqy-12">
          <mxGeometry relative="1" as="geometry">
            <Array as="points">
              <mxPoint x="438" y="295" />
              <mxPoint x="438" y="454" />
            </Array>
          </mxGeometry>
        </mxCell>
        <mxCell id="mzn5P4DBW5ug80A-4Pqy-44" value="FAILED" style="edgeLabel;html=1;align=center;verticalAlign=middle;resizable=0;points=[];" vertex="1" connectable="0" parent="mzn5P4DBW5ug80A-4Pqy-43">
          <mxGeometry x="-0.5126" relative="1" as="geometry">
            <mxPoint as="offset" />
          </mxGeometry>
        </mxCell>
        <mxCell id="mzn5P4DBW5ug80A-4Pqy-52" value="" style="edgeStyle=orthogonalEdgeStyle;rounded=0;orthogonalLoop=1;jettySize=auto;html=1;" edge="1" parent="1" source="mzn5P4DBW5ug80A-4Pqy-45" target="mzn5P4DBW5ug80A-4Pqy-48">
          <mxGeometry relative="1" as="geometry" />
        </mxCell>
        <mxCell id="mzn5P4DBW5ug80A-4Pqy-45" value="VIEW PDF" style="rounded=0;whiteSpace=wrap;html=1;" vertex="1" parent="1">
          <mxGeometry x="480.47" y="160" width="120" height="40" as="geometry" />
        </mxCell>
        <mxCell id="mzn5P4DBW5ug80A-4Pqy-48" value="END" style="ellipse;whiteSpace=wrap;html=1;" vertex="1" parent="1">
          <mxGeometry x="488.97" y="90" width="103" height="40" as="geometry" />
        </mxCell>
      </root>
    </mxGraphModel>
  </diagram>
</mxfile>
